<mxfile host="app.diagrams.net" modified="2023-09-22T14:41:17.610Z" agent="Mozilla/5.0 (Linux; Android 10; K) AppleWebKit/537.36 (KHTML, like Gecko) Chrome/117.0.0.0 Mobile Safari/537.36" version="21.6.9" etag="dD0iwxJJJDZi5PFVQiUv" type="github">
  <diagram name="PÃ¡gina-1" id="EdCi6qqeYbmj2dqAL55u">
    <mxGraphModel>
      <root>
        <mxCell id="0" />
        <mxCell id="1" parent="0" />
      </root>
    </mxGraphModel>
  </diagram>
</mxfile>
